# xmcd
#
# Track frame offsets: 
#        150
#        22524
#        46250
#        61203
#        89343
#        106970
#        128106
#        143290
#        163196
#        178825
#        196733
#        219249
#        240997
#        268123
#        281490
#        294741
#
# Disc length: 4164 seconds
#
# Revision: 2
# Processed by: cddbd v1.5.2PL0 Copyright (c) Steve Scherf et al.
# Submitted via: ExactAudioCopy v1.0b3
#
DISCID=d7104210
DTITLE=Teddy Wilson - In Copenhagen (1979)
DYEAR=1979
DGENRE=Jazz
TTITLE0=Honeysuckle Rose
TTITLE1=I'm Gonna Sit Down And Write Myself A Letter
TTITLE2=Medley: - I've Got A Feeling I'm Falling - Ain't Misbehavin'
TTITLE3=St. Louis Blues
TTITLE4=Medley: - In A Sentimental Mood - Mood Indigo
TTITLE5=Perdido
TTITLE6=Satin Doll
TTITLE7=Take The A Train
TTITLE8=Body And Soul
TTITLE9=Basin Street Blues
TTITLE10=Avalon
TTITLE11=Moonglow
TTITLE12=I'll Remember April
TTITLE13=Who Cares?
TTITLE14=Someone To Watch Over Me
TTITLE15=S'Wonderful
EXTD=
EXTT0=
EXTT1=
EXTT2=
EXTT3=
EXTT4=
EXTT5=
EXTT6=
EXTT7=
EXTT8=
EXTT9=
EXTT10=
EXTT11=
EXTT12=
EXTT13=
EXTT14=
EXTT15=
PLAYORDER=
